<svg width="40" height="40" viewBox="0 0 40 40" fill="none" xmlns="http://www.w3.org/2000/svg">
<path d="M20.0243 16.4216C18.0315 16.4216 16.424 18.0294 16.424 20.0227C16.424 22.016 18.0315 23.6238 20.0243 23.6238C22.0171 23.6238 23.6246 22.016 23.6246 20.0227C23.6246 18.0294 22.0171 16.4216 20.0243 16.4216ZM20.0243 22.3639C18.7365 22.3639 17.6836 21.314 17.6836 20.0227C17.6836 18.7315 18.7333 17.6816 20.0243 17.6816C21.3153 17.6816 22.3649 18.7315 22.3649 20.0227C22.3649 21.314 21.3121 22.3639 20.0243 22.3639ZM24.6116 16.2743C24.6116 16.7413 24.2356 17.1143 23.7718 17.1143C23.305 17.1143 22.9321 16.7382 22.9321 16.2743C22.9321 15.8105 23.3081 15.4344 23.7718 15.4344C24.2356 15.4344 24.6116 15.8105 24.6116 16.2743ZM26.9961 17.1268C26.9428 16.0017 26.6859 15.005 25.8618 14.1839C25.0409 13.3628 24.0444 13.1058 22.9196 13.0494C21.7602 12.9835 18.2853 12.9835 17.1259 13.0494C16.0041 13.1026 15.0077 13.3596 14.1836 14.1808C13.3596 15.0019 13.1058 15.9985 13.0494 17.1237C12.9835 18.2833 12.9835 21.759 13.0494 22.9186C13.1026 24.0438 13.3596 25.0404 14.1836 25.8615C15.0077 26.6827 16.001 26.9397 17.1259 26.9961C18.2853 27.0619 21.7602 27.0619 22.9196 26.9961C24.0444 26.9428 25.0409 26.6858 25.8618 25.8615C26.6828 25.0404 26.9397 24.0438 26.9961 22.9186C27.0619 21.759 27.0619 18.2864 26.9961 17.1268ZM25.4983 24.1629C25.2539 24.7772 24.7808 25.2504 24.1635 25.498C23.2392 25.8647 21.0458 25.7801 20.0243 25.7801C19.0028 25.7801 16.8063 25.8615 15.8851 25.498C15.2709 25.2535 14.7978 24.7803 14.5502 24.1629C14.1836 23.2383 14.2682 21.0444 14.2682 20.0227C14.2682 19.001 14.1868 16.804 14.5502 15.8826C14.7947 15.2683 15.2678 14.7951 15.8851 14.5475C16.8094 14.1808 19.0028 14.2654 20.0243 14.2654C21.0458 14.2654 23.2423 14.1839 24.1635 14.5475C24.7777 14.7919 25.2508 15.2652 25.4983 15.8826C25.8649 16.8071 25.7803 19.001 25.7803 20.0227C25.7803 21.0444 25.8649 23.2414 25.4983 24.1629Z" fill="white"/>
<rect opacity="0.1" x="0.5" y="0.5" width="39" height="39" rx="4.5" stroke="white"/>
</svg>
