<svg width="40" height="40" viewBox="0 0 40 40" fill="none" xmlns="http://www.w3.org/2000/svg">
<path d="M17.0576 20.6849C17.0576 21.0025 16.7959 21.2599 16.4732 21.2599C16.1504 21.2599 15.8888 21.0025 15.8888 20.6849C15.8888 20.3673 16.1504 20.1099 16.4732 20.1099C16.7959 20.1099 17.0576 20.3673 17.0576 20.6849ZM23.5185 20.1101C23.1959 20.1101 22.9344 20.3675 22.9344 20.6849C22.9344 21.0023 23.1959 21.2597 23.5185 21.2597C23.8411 21.2597 24.1027 21.0023 24.1027 20.6849C24.1027 20.3675 23.8411 20.1101 23.5185 20.1101ZM25.6982 23.4568C24.1701 24.635 21.9607 24.3712 20.7633 22.8676L20.0079 23.979L19.2597 22.8769C18.0825 24.3258 15.9526 24.6017 14.4344 23.502C12.8724 22.3706 12.5383 20.2075 13.6882 18.6706C13.5403 18.1781 13.3076 17.7143 13 17.2995L15.2016 17.2983C16.6416 16.4166 18.3112 15.9662 20.0069 16.002C21.662 15.9729 23.2901 16.4176 24.6931 17.2819L27.0394 17.2837C26.729 17.7017 26.495 18.1698 26.348 18.6668C27.489 20.1723 27.2006 22.2986 25.6982 23.4568ZM19.3245 20.7147C19.3243 19.1898 18.0678 17.9537 16.518 17.9539C14.9682 17.9541 13.712 19.1904 13.7122 20.7152C13.7123 22.2401 14.9688 23.4761 16.5186 23.476C18.0674 23.4742 19.3225 22.2394 19.3245 20.7156V20.7147ZM20.0217 20.4638C20.1542 18.7018 21.6191 17.3236 23.414 17.2723C22.3391 16.815 21.1778 16.5876 20.0069 16.605C18.8344 16.5939 17.6718 16.8163 16.5891 17.2589C18.4019 17.2969 19.8882 18.6846 20.0217 20.4638ZM26.1594 19.7736C25.6231 18.3429 24.0096 17.6108 22.5555 18.1384C21.1013 18.666 20.3573 20.2536 20.8935 21.6843V21.6851C21.4309 23.1152 23.0442 23.8466 24.4982 23.3193C25.9519 22.7914 26.6956 21.2041 26.1594 19.7736ZM18.2091 20.6847V20.6875C18.2077 21.6311 17.4291 22.3949 16.4702 22.3935C15.5112 22.3921 14.7349 21.6261 14.7363 20.6825C14.7377 19.7389 15.5162 18.9751 16.4752 18.9765C17.4325 18.9793 18.2075 19.7428 18.2091 20.6847ZM17.6114 20.6847V20.6827C17.6102 20.0641 17.0995 19.5636 16.4707 19.5648C15.842 19.5661 15.3333 20.0685 15.3346 20.6871C15.3358 21.3057 15.8465 21.8062 16.4752 21.805C17.1025 21.8023 17.61 21.3019 17.6114 20.6847ZM25.254 20.6847V20.6859C25.2536 21.6295 24.4757 22.394 23.5167 22.3935C22.5577 22.393 21.7807 21.6277 21.7812 20.6841C21.7817 19.7405 22.5595 18.976 23.5185 18.9765C24.4766 18.9781 25.2528 19.7421 25.254 20.6847ZM24.6565 20.6845C24.6563 20.0659 24.1465 19.5646 23.5177 19.5648C22.889 19.565 22.3795 20.0667 22.3797 20.6853C22.3799 21.3039 22.8898 21.8052 23.5185 21.805C24.1468 21.8039 24.6557 21.3029 24.6565 20.6848V20.6845Z" fill="white"/>
<rect opacity="0.1" x="0.5" y="0.5" width="39" height="39" rx="4.5" stroke="white"/>
</svg>
