<svg width="40" height="40" viewBox="0 0 40 40" fill="none" xmlns="http://www.w3.org/2000/svg">
<path d="M26.7254 16.5556C26.8218 16.2356 26.7254 16 26.2612 16H24.7255C24.3344 16 24.1545 16.2023 24.058 16.4276C24.058 16.4276 23.2758 18.2992 22.1702 19.5128C21.813 19.8636 21.6487 19.9763 21.4532 19.9763C21.3567 19.9763 21.2081 19.8636 21.2081 19.5436V16.5556C21.2081 16.1715 21.0986 16 20.7753 16H18.3608C18.1157 16 17.9697 16.1792 17.9697 16.3456C17.9697 16.7092 18.5225 16.7937 18.5798 17.8179V20.0403C18.5798 20.5267 18.4912 20.6163 18.2956 20.6163C17.7741 20.6163 16.507 18.737 15.756 16.5863C15.6048 16.169 15.4562 16 15.0625 16H13.5267C13.0887 16 13 16.2023 13 16.4276C13 16.827 13.5215 18.8113 15.4275 21.4331C16.6973 23.2228 18.486 24.1932 20.113 24.1932C21.0908 24.1932 21.2107 23.9781 21.2107 23.6069C21.2107 21.8965 21.122 21.7352 21.6122 21.7352C21.8391 21.7352 22.2302 21.8479 23.1428 22.7107C24.1857 23.7349 24.3578 24.1932 24.9419 24.1932H26.4776C26.9157 24.1932 27.1373 23.9781 27.0096 23.5531C26.7175 22.6595 24.7437 20.8212 24.6551 20.6983C24.4282 20.4115 24.4934 20.2835 24.6551 20.0275C24.6577 20.0249 26.5324 17.4338 26.7254 16.5556Z" fill="white"/>
<rect opacity="0.1" x="0.5" y="0.5" width="39" height="39" rx="4.5" stroke="white"/>
</svg>
